<?xml version="1.0" standalone="no"?><!DOCTYPE svg PUBLIC "-//W3C//DTD SVG 1.1//EN" "http://www.w3.org/Graphics/SVG/1.1/DTD/svg11.dtd"><svg t="1608048103138" class="icon" viewBox="0 0 1024 1024" version="1.1" xmlns="http://www.w3.org/2000/svg" p-id="4743" xmlns:xlink="http://www.w3.org/1999/xlink" width="200" height="200"><defs><style type="text/css"></style></defs><path d="M198 344.5H881.9v-93.2h-741v93.2H198zM332.2 64.2H690.6c21.7 0 39 15.7 39 34.5v83.8h191.3c21.2 0 38.5 15.4 38.5 34.2v162.1c0 18.8-17.3 34.2-38.5 34.2h-57.4v512.6c0 18.8-17.3 34.5-38.8 34.5H198c-21.4 0-38.5-15.7-38.5-34.5V413.2h-57.2c-21.4 0-39-15.4-39-34.2V216.8c0-18.8 17.6-34.2 39-34.2H293V98.7c0.1-18.8 17.7-34.5 39.2-34.5z m319.6 69H370.6v43h281.2v-43z m-278.4 280V812c0 11.2-10.5 20.3-23.1 20.3-12.6 0-23.1-9.1-23.1-20.3V413.2h-90.4v478.1h548.8V413.2H696V812c0 11.2-10.7 20.3-23.4 20.3-12.9 0-23.4-9.1-23.4-20.3V413.2H534.4V812c0 11.2-9.9 20.3-23.1 20.3-12.6 0-23.4-9.1-23.4-20.3V413.2H373.4z" p-id="4744" fill="#ffffff"></path></svg>