<?xml version="1.0" standalone="no"?><!DOCTYPE svg PUBLIC "-//W3C//DTD SVG 1.1//EN" "http://www.w3.org/Graphics/SVG/1.1/DTD/svg11.dtd"><svg t="1608649840318" class="icon" viewBox="0 0 1024 1024" version="1.1" xmlns="http://www.w3.org/2000/svg" p-id="2669" xmlns:xlink="http://www.w3.org/1999/xlink" width="200" height="200"><defs><style type="text/css"></style></defs><path d="M512 128c-213.333333 0-384 170.666667-384 384s170.666667 384 384 384 384-170.666667 384-384-170.666667-384-384-384z m0 42.666667c85.333333 0 166.4 34.133333 226.133333 85.333333L256 738.133333C204.8 678.4 170.666667 597.333333 170.666667 512c0-187.733333 153.6-341.333333 341.333333-341.333333z m0 682.666666c-85.333333 0-166.4-34.133333-226.133333-85.333333L768 285.866667c51.2 59.733333 85.333333 140.8 85.333333 226.133333 0 187.733333-153.6 341.333333-341.333333 341.333333z" p-id="2670" fill="#ffffff"></path></svg>