<?xml version="1.0" standalone="no"?><!DOCTYPE svg PUBLIC "-//W3C//DTD SVG 1.1//EN" "http://www.w3.org/Graphics/SVG/1.1/DTD/svg11.dtd"><svg t="1610560175786" class="icon" viewBox="0 0 1024 1024" version="1.1" xmlns="http://www.w3.org/2000/svg" p-id="1819" xmlns:xlink="http://www.w3.org/1999/xlink" width="200" height="200"><defs><style type="text/css"></style></defs><path d="M648.125819 537.100678l-40.811498 41.247426-29.727045-26.467815-36.086893-34.995025 64.727187-69.249177c72.680323 31.676443 148.086733 18.825764 198.831464-25.146727 49.828872-43.24492 49.828872-128.269385 49.828872-128.269385l-39.896662-15.57472-76.682473 77.623915L626.478799 245.402129l77.212546-78.128405-15.766079-39.800471c0 0-77.259618 0-128.777969 51.130518-47.87538 47.489594-63.037708 125.617999-29.313629 196.252733l-67.157539 65.521273-96.66662-93.799316-5.734608-65.690118-90.499154-58.338686-25.52842 25.550932-25.481348 25.576515-25.550932 25.555026 58.242496 90.664929 61.58973 5.377474 99.103112 94.424556L158.908708 736.732367c0 0-7.305383 45.391816 22.273283 75.019601 23.844058 23.865547 67.11456 18.968004 67.11456 18.968004l245.787916-263.002996 35.628452 33.965579 26.469861 26.349111-50.744731 52.121078c72.803119 72.873728 145.580656 145.798621 218.381729 218.718397 74.973552-20.202111 118.198006-72.248488 142.763494-142.999878C793.708522 682.901345 720.903356 609.976452 648.125819 537.100678L648.125819 537.100678 648.125819 537.100678zM254.178515 776.916579c-11.668761 11.740392-30.638811 11.884678-42.449811 0.214894-11.768021-11.69025-11.864212-30.737048-0.217964-42.571584 11.642155-11.835559 30.661324-11.957333 42.475394-0.214894C265.724479 746.06185 265.893324 765.05646 254.178515 776.916579L254.178515 776.916579 254.178515 776.916579zM730.208279 842.726423 564.62301 676.869978l24.537859-24.561395 171.46928 171.830507L730.208279 842.726423 730.208279 842.726423 730.208279 842.726423zM788.547988 796.129152 617.076662 624.367207l24.565489-24.635073 165.561733 165.853375L788.547988 796.129152 788.547988 796.129152 788.547988 796.129152zM788.547988 796.129152" p-id="1820" fill="#ffffff"></path></svg>