<?xml version="1.0" standalone="no"?><!DOCTYPE svg PUBLIC "-//W3C//DTD SVG 1.1//EN" "http://www.w3.org/Graphics/SVG/1.1/DTD/svg11.dtd"><svg t="1607468982326" class="icon" viewBox="0 0 1024 1024" version="1.1" xmlns="http://www.w3.org/2000/svg" p-id="6453" xmlns:xlink="http://www.w3.org/1999/xlink" width="200" height="200"><defs><style type="text/css"></style></defs><path d="M307.2 256a51.2 51.2 0 0 1-51.2 51.2H153.6a51.2 51.2 0 0 1-51.2-51.2V153.6a51.2 51.2 0 0 1 51.2-51.2h102.4a51.2 51.2 0 0 1 51.2 51.2v12.8h402.9952c84.6848 0 147.4048 88.3712 147.4048 192 0 100.1984-58.5728 186.112-139.008 191.6928l-8.3968 0.3072H614.4V563.2a51.2 51.2 0 0 1-51.2 51.2H460.8a51.2 51.2 0 0 1-51.2-51.2v-12.8H352.2048c-35.5328 0-70.6048 49.408-70.6048 115.2 0 62.6176 31.8464 110.4384 65.536 114.8416l5.0688 0.3584H716.8V768a51.2 51.2 0 0 1 51.2-51.2h102.4a51.2 51.2 0 0 1 51.2 51.2v102.4a51.2 51.2 0 0 1-51.2 51.2h-102.4a51.2 51.2 0 0 1-51.2-51.2v-12.8H352.2048C267.52 857.6 204.8 769.2288 204.8 665.6c0-100.1984 58.5728-186.112 139.008-191.6928l8.3968-0.3072H409.6V460.8a51.2 51.2 0 0 1 51.2-51.2h102.4a51.2 51.2 0 0 1 51.2 51.2v12.8h95.7952c35.5328 0 70.6048-49.408 70.6048-115.2 0-62.6176-31.8464-110.4384-65.536-114.8416l-5.0688-0.3584H307.2V256z" p-id="6454" fill="#ffffff"></path></svg>