<?xml version="1.0" standalone="no"?><!DOCTYPE svg PUBLIC "-//W3C//DTD SVG 1.1//EN" "http://www.w3.org/Graphics/SVG/1.1/DTD/svg11.dtd"><svg t="1610720802644" class="icon" viewBox="0 0 1024 1024" version="1.1" xmlns="http://www.w3.org/2000/svg" p-id="1969" xmlns:xlink="http://www.w3.org/1999/xlink" width="200" height="200"><defs><style type="text/css"></style></defs><path d="M928 64H96a32 32 0 0 0-32 32v192a32 32 0 0 0 32 32h832a32 32 0 0 0 32-32V96a32 32 0 0 0-32-32zM224 224H160V160h64z m304 16h-32v-32h32z m0-64h-32v-32h32z m64 64h-32v-32h32z m0-64h-32v-32h32z m64 64h-32v-32h32z m0-64h-32v-32h32z m64 64h-32v-32h32z m0-64h-32v-32h32z m64 64h-32v-32h32z m0-64h-32v-32h32z m64 64h-32v-32h32z m0-64h-32v-32h32zM928 384H96a32 32 0 0 0-32 32v192a32 32 0 0 0 32 32h832a32 32 0 0 0 32-32v-192a32 32 0 0 0-32-32zM224 544H160v-64h64z m304 16h-32v-32h32z m0-64h-32v-32h32z m64 64h-32v-32h32z m0-64h-32v-32h32z m64 64h-32v-32h32z m0-64h-32v-32h32z m64 64h-32v-32h32z m0-64h-32v-32h32z m64 64h-32v-32h32z m0-64h-32v-32h32z m64 64h-32v-32h32z m0-64h-32v-32h32zM928 704H96a32 32 0 0 0-32 32v192a32 32 0 0 0 32 32h832a32 32 0 0 0 32-32v-192a32 32 0 0 0-32-32zM224 864H160v-64h64z m304 16h-32v-32h32z m0-64h-32v-32h32z m64 64h-32v-32h32z m0-64h-32v-32h32z m64 64h-32v-32h32z m0-64h-32v-32h32z m64 64h-32v-32h32z m0-64h-32v-32h32z m64 64h-32v-32h32z m0-64h-32v-32h32z m64 64h-32v-32h32z m0-64h-32v-32h32z" fill="#ffffff" p-id="1970"></path></svg>