<?xml version="1.0" standalone="no"?><!DOCTYPE svg PUBLIC "-//W3C//DTD SVG 1.1//EN" "http://www.w3.org/Graphics/SVG/1.1/DTD/svg11.dtd"><svg t="1608664840985" class="icon" viewBox="0 0 1024 1024" version="1.1" xmlns="http://www.w3.org/2000/svg" p-id="3789" xmlns:xlink="http://www.w3.org/1999/xlink" width="200" height="200"><defs><style type="text/css"></style></defs><path d="M177.230769 68.923077C177.230769 53.169231 163.446154 39.384615 147.692308 39.384615h-59.076923C72.861538 39.384615 59.076923 53.169231 59.076923 68.923077v886.153846c0 15.753846 13.784615 29.538462 29.538462 29.538462h59.076923c15.753846 0 29.538462-13.784615 29.538461-29.538462v-886.153846z m758.153846 82.707692c-315.076923 165.415385-279.630769-173.292308-659.692307-41.353846-11.815385 3.938462-19.692308 15.753846-19.692308 27.569231v458.830769c0 13.784615 13.784615 23.630769 25.6 17.723077 378.092308-126.030769 338.707692 220.553846 667.569231 35.446154 9.846154-5.907692 15.753846-15.753846 15.753846-25.6V167.384615c0-13.784615-15.753846-23.630769-29.538462-15.753846z" p-id="3790" fill="#ffffff"></path></svg>