<?xml version="1.0" standalone="no"?><!DOCTYPE svg PUBLIC "-//W3C//DTD SVG 1.1//EN" "http://www.w3.org/Graphics/SVG/1.1/DTD/svg11.dtd"><svg t="1611675924208" class="icon" viewBox="0 0 1024 1024" version="1.1" xmlns="http://www.w3.org/2000/svg" p-id="2670" xmlns:xlink="http://www.w3.org/1999/xlink" width="200" height="200"><defs><style type="text/css"></style></defs><path d="M865.762069 253.558903 413.751349 253.558903c-16.949021 0-30.688953-13.739932-30.688953-30.688953s13.739932-30.688953 30.688953-30.688953L865.762069 192.180997c16.949021 0 30.688953 13.739932 30.688953 30.688953S882.71109 253.558903 865.762069 253.558903z" p-id="2671" fill="#ffffff"></path><path d="M863.999936 542.712489 411.304623 542.712489c-16.962324 0-30.712489-13.750165-30.712489-30.712489s13.750165-30.712489 30.712489-30.712489l452.695313 0c16.9613 0 30.712489 13.750165 30.712489 30.712489S880.961236 542.712489 863.999936 542.712489z" p-id="2672" fill="#ffffff"></path><path d="M863.999936 830.308603 407.92055 830.308603c-17.025769 0-30.827099-13.801331-30.827099-30.827099s13.801331-30.827099 30.827099-30.827099l456.079386 0c17.025769 0 30.827099 13.801331 30.827099 30.827099S881.025705 830.308603 863.999936 830.308603z" p-id="2673" fill="#ffffff"></path><path d="M224.314859 130.320091l41.271986 0 0 198.804858-48.4075 0L217.179344 183.904497l-36.935214 25.182542-23.50432-34.416857L224.314859 130.320091z" p-id="2674" fill="#ffffff"></path><path d="M219.138976 575.47773l79.186504 0 0 37.214577L156.181085 612.692307l0-38.334073c31.338752-25.555026 53.629431-46.028313 66.875107-61.418838 13.242606-15.389502 19.866467-28.260647 19.866467-38.613436 0-7.92653-2.587941-14.270005-7.764847-19.027355s-12.101619-7.135514-20.776186-7.135514c-7.462972 0-15.437597 1.189082-23.923876 3.567245-8.488325 2.378164-17.721617 5.993504-27.700899 10.842952l-1.39886-40.992623c10.912537-4.103458 21.871123-7.181563 32.877805-9.233292 11.004635-2.050706 22.10546-3.078105 33.29736-3.078105 20.146852 0 36.537148 5.504364 49.177026 16.508999 12.637832 11.006681 18.956747 25.182542 18.956747 42.531676 0 15.018042-6.133697 31.128975-18.398022 48.336892C265.00356 533.856797 245.627257 553.467437 219.138976 575.47773z" p-id="2675" fill="#ffffff"></path><path d="M256.492722 785.942139c13.057387 3.357468 22.944572 8.953929 29.659507 16.788361s10.073426 17.582447 10.073426 29.239951c0 18.187221-8.138354 32.57593-24.413016 43.161009-16.276708 10.587126-38.591947 15.879666-66.944691 15.879666-8.767688 0-17.511839-0.559748-26.232454-1.679245-8.721639-1.119497-17.46579-2.843768-26.232454-5.176906l2.937912-41.271986c7.181563 3.545756 14.68956 6.204305 22.525016 7.974625 7.834432 1.772366 15.995299 2.65855 24.483624 2.65855 13.057387 0 23.294542-2.308579 30.709419-6.925736s11.122315-10.889001 11.122315-18.817578c0-7.274684-2.822278-12.82305-8.463766-16.649192-5.644557-3.823072-13.82896-5.735631-24.553209-5.735631l-24.623817 0 0-34.976606 22.664186 0c9.979282 0 18.048051-2.050706 24.203238-6.15621 6.15621-4.103458 9.233292-9.419534 9.233292-15.94925 0-6.901177-3.1262-12.428054-9.373485-16.578584-6.249331-4.149507-14.644535-6.225795-25.182542-6.225795-7.649214 0-15.389502 0.747014-23.223934 2.238994-7.834432 1.493004-15.669888 3.685949-23.50432 6.575766l-2.378164-36.935214c9.79304-2.889817 19.702738-5.058203 29.730115-6.505158 10.025331-1.444908 20.262486-2.168386 30.709419-2.168386 23.130813 0 41.108257 4.756327 53.933353 14.270005 12.82305 9.513678 19.237133 22.712281 19.237133 39.59274 0 10.82044-3.055592 19.891026-9.163707 27.211758C277.314956 777.10589 268.337491 782.492574 256.492722 785.942139z" p-id="2676" fill="#ffffff"></path></svg>