<?xml version="1.0" standalone="no"?><!DOCTYPE svg PUBLIC "-//W3C//DTD SVG 1.1//EN" "http://www.w3.org/Graphics/SVG/1.1/DTD/svg11.dtd"><svg t="1611006371669" class="icon" viewBox="0 0 1024 1024" version="1.1" xmlns="http://www.w3.org/2000/svg" p-id="6822" xmlns:xlink="http://www.w3.org/1999/xlink" width="200" height="200"><defs><style type="text/css"></style></defs><path d="M704 736c-22.4 0-48 19.2-64 32-35.2 25.6-89.6 54.4-131.2 73.6-28.8 12.8-70.4 22.4-112 22.4-25.6 0-96-25.6-108.8-28.8-32-96 80-83.2 128-99.2 96-32 96-64 96-64 0-48-160-64-352-32l-128 32c-19.2 0-32 12.8-32 32V857.6c0 25.6 0 70.4 48 96 60.8 35.2 179.2 35.2 288 35.2h16c160 0 256-64 352-160 32-28.8 25.6-92.8 0-92.8zM992 32H160c-19.2 0-32 12.8-32 32v476.8c0 19.2 16 35.2 35.2 35.2h825.6c19.2 0 35.2-16 35.2-35.2V64c0-19.2-12.8-32-32-32z m-576 288c0 19.2-12.8 32-32 32h-64c-19.2 0-32-12.8-32-32V288c0-19.2 12.8-32 32-32h64c19.2 0 32 12.8 32 32v32z m512 0c0 19.2-12.8 32-32 32H544c-19.2 0-32-12.8-32-32V288c0-19.2 12.8-32 32-32h352c19.2 0 32 12.8 32 32v32z" p-id="6823" fill="#ffffff"></path></svg>